<svg width="274" height="174" viewBox="0 0 274 174" fill="none" xmlns="http://www.w3.org/2000/svg">
<g clip-path="url(#clip0_119_950)">
<path d="M226.863 173.752L227.604 173.737C227.318 165.47 226.438 157.233 224.972 149.092C221.765 131.662 216.433 120.215 209.124 115.069L208.698 115.677C225.773 127.699 226.854 173.293 226.863 173.752Z" fill="#2F2E41"/>
<path d="M217.593 173.574L218.335 173.559C218.319 172.736 217.856 153.329 210.236 147.964L209.811 148.573C217.122 153.721 217.59 173.376 217.593 173.574Z" fill="#2F2E41"/>
<path d="M204.48 115.745C206.527 115.745 208.187 114.08 208.187 112.027C208.187 109.973 206.527 108.309 204.48 108.309C202.432 108.309 200.772 109.973 200.772 112.027C200.772 114.08 202.432 115.745 204.48 115.745Z" fill="#F9A826"/>
<path d="M206.316 147.719C208.364 147.719 210.024 146.054 210.024 144.001C210.024 141.948 208.364 140.283 206.316 140.283C204.268 140.283 202.608 141.948 202.608 144.001C202.608 146.054 204.268 147.719 206.316 147.719Z" fill="#F9A826"/>
<path d="M219.322 117.973C218.625 122.436 220.441 126.428 220.441 126.428C220.441 126.428 223.387 123.184 224.084 118.721C224.781 114.258 222.965 110.266 222.965 110.266C222.965 110.266 220.019 113.51 219.322 117.973Z" fill="#2F2E41"/>
<path d="M207.202 128.813C211.464 130.278 215.7 129.181 215.7 129.181C215.7 129.181 213.027 125.706 208.766 124.241C204.505 122.775 200.269 123.873 200.269 123.873C200.269 123.873 202.941 127.347 207.202 128.813Z" fill="#2F2E41"/>
<path d="M207.066 157.129C208.994 157.736 211.048 157.825 213.022 157.387C211.769 155.787 210.081 154.585 208.162 153.924C206.243 153.264 204.174 153.175 202.206 153.667C203.495 155.228 205.171 156.421 207.066 157.129Z" fill="#2F2E41"/>
<path d="M120.536 57.7015L96.6318 45.2368C96.6318 45.2368 88.6043 36.372 83.5629 32.3679C78.5215 28.3638 76.9696 31.3054 76.9696 31.3054L74.8503 34.8472L79.9719 41.99L93.8061 53.7373L118.525 63.4462C118.912 64.0809 119.47 64.5927 120.135 64.9219C120.8 65.2512 121.545 65.3844 122.283 65.3062C123.02 65.228 123.721 64.9416 124.302 64.4801C124.884 64.0187 125.323 63.4012 125.569 62.6994C125.815 61.9976 125.857 61.2402 125.69 60.5154C125.524 59.7906 125.156 59.128 124.629 58.6046C124.102 58.0812 123.437 57.7185 122.713 57.5587C121.989 57.3988 121.234 57.4483 120.536 57.7015Z" fill="#9F616A"/>
<path d="M58.3583 46.9212L56.943 38.239L52.9468 37.2372C52.9468 37.2372 49.7753 36.2576 49.034 42.6636C48.2927 49.0696 48.8674 61.0299 48.8674 61.0299L40.7539 86.7935C40.079 87.1083 39.5072 87.6089 39.105 88.2369C38.7028 88.865 38.4869 89.5947 38.4823 90.3411C38.4776 91.0875 38.6846 91.8198 39.0789 92.4528C39.4733 93.0858 40.0389 93.5934 40.7098 93.9166C41.3808 94.2398 42.1295 94.3651 42.8687 94.2781C43.608 94.1911 44.3074 93.8953 44.8855 93.4252C45.4636 92.955 45.8966 92.3299 46.1341 91.6225C46.3716 90.9151 46.4038 90.1547 46.227 89.4296L56.8598 65.0371L58.3583 46.9212Z" fill="#9F616A"/>
<path d="M91.4118 168.763L96.6408 168.763L99.1286 148.538L91.4106 148.538L91.4118 168.763Z" fill="#9F616A"/>
<path d="M90.0779 167.051L100.376 167.051H100.377C102.117 167.051 103.786 167.744 105.017 168.978C106.248 170.212 106.939 171.886 106.939 173.632V173.846L90.0782 173.846L90.0779 167.051Z" fill="#2F2E41"/>
<path d="M34.3765 168.763L39.6058 168.763L42.0933 148.538L34.3757 148.538L34.3765 168.763Z" fill="#9F616A"/>
<path d="M33.0427 167.051L43.3409 167.051H43.3413C45.0819 167.051 46.7511 167.744 47.9818 168.978C49.2126 170.212 49.9041 171.886 49.9042 173.632V173.846L33.043 173.846L33.0427 167.051Z" fill="#2F2E41"/>
<path d="M60.1921 29.5777L51.5188 37.0022L58.6368 59.5898L60.2428 64.6336C60.2428 64.6336 50.4359 73.7006 44.368 99.0291C38.3 124.358 28.3735 158.013 28.3735 158.013L49.3266 164.028L66.3733 106.732L86.4243 151.682L88.7393 164.977L106.583 159.701L102.374 126.358L81.3285 68.6402L83.5146 53.3402C83.5146 53.3402 86.7974 45.7034 81.0944 37.6182L79.3055 30.021L72.8973 28.4382L60.1921 29.5777Z" fill="#2F2E41"/>
<path d="M74.6013 25.5415H51.1516C50.6693 25.5409 50.2068 25.3485 49.8658 25.0065C49.5247 24.6645 49.3328 24.2008 49.3323 23.7171V13.5816C49.3323 9.97951 50.7592 6.52499 53.2993 3.97795C55.8393 1.43091 59.2843 0 62.8765 0C66.4686 0 69.9136 1.43091 72.4536 3.97795C74.9936 6.52499 76.4206 9.97951 76.4206 13.5816V23.7171C76.4201 24.2007 76.2282 24.6645 75.8871 25.0065C75.5461 25.3485 75.0836 25.5409 74.6013 25.5415Z" fill="#2F2E41"/>
<path d="M74.3729 20.1241C77.0034 15.2987 75.2349 9.24848 70.4227 6.61064C65.6105 3.9728 59.577 5.74622 56.9464 10.5717C54.3159 15.3971 56.0844 21.4473 60.8966 24.0852C65.7087 26.723 71.7423 24.9496 74.3729 20.1241Z" fill="#9F616A"/>
<path d="M79.6249 14.5951H65.286L65.139 12.5308L64.4038 14.5951H62.1959L61.9045 10.5037L60.4474 14.5951H56.1753V14.3924C56.1785 11.544 57.3083 8.81322 59.3168 6.7991C61.3254 4.78497 64.0487 3.65202 66.8892 3.6488H68.9108C71.7514 3.65202 74.4747 4.78496 76.4833 6.79909C78.4919 8.81321 79.6217 11.544 79.6249 14.3924V14.5951Z" fill="#2F2E41"/>
<path d="M65.1685 27.4335C65.0605 27.4334 64.9528 27.4238 64.8465 27.405L54.3469 25.5473V8.14673H65.9049L65.6188 8.48128C61.6375 13.1373 64.6369 20.687 66.7792 24.7729C66.9371 25.0722 67.0075 25.41 66.9823 25.7476C66.9571 26.0853 66.8373 26.4089 66.6367 26.6812C66.4688 26.9141 66.2481 27.1037 65.9929 27.2345C65.7376 27.3653 65.4551 27.4335 65.1685 27.4335Z" fill="#2F2E41"/>
<path d="M151.999 118.657L59.9807 151.28C57.7056 152.084 55.2054 151.95 53.0287 150.908C50.852 149.865 49.1766 148 48.3699 145.72L32.5624 100.887C31.7609 98.6056 31.8946 96.0985 32.9342 93.9158C33.9738 91.7331 35.8343 90.0531 38.1076 89.2442L130.126 56.6204C132.401 55.8167 134.901 55.9507 137.078 56.9932C139.255 58.0356 140.93 59.9013 141.737 62.1809L157.544 107.014C158.346 109.295 158.212 111.802 157.173 113.985C156.133 116.168 154.272 117.848 151.999 118.657Z" fill="white"/>
<path d="M157.544 107.014L157.628 107.251C158.396 109.43 158.269 111.825 157.276 113.91C156.282 115.995 154.503 117.599 152.331 118.369L59.852 151.156C57.6797 151.926 55.2914 151.799 53.2123 150.804C51.1333 149.808 49.5337 148.025 48.7655 145.847L48.6819 145.609L157.544 107.014Z" fill="#F2F2F2"/>
<path d="M54.2383 99.6535C48.1388 103.678 40.3216 100.649 37.5876 96.2376L38.0235 95.9892C43.2162 92.7436 50.9277 94.5519 54.2383 99.6535Z" fill="#F9A826"/>
<path d="M130.673 111.072C129.18 111.601 127.836 111.577 126.677 111C124.059 109.695 122.83 105.826 121.842 102.718C121.555 101.814 121.284 100.959 121.008 100.261L121.004 100.251C120.523 98.8655 120.607 97.3462 121.236 96.0227C121.866 94.6992 122.992 93.6784 124.368 93.1821L136.745 88.7939C138.236 88.2653 139.579 88.2894 140.736 88.8656C143.354 90.1687 144.584 94.0359 145.573 97.1433C145.861 98.0494 146.133 98.9054 146.41 99.6046C146.894 100.991 146.811 102.513 146.182 103.839C145.552 105.165 144.425 106.187 143.047 106.685L130.673 111.072ZM121.522 100.062C121.805 100.777 122.078 101.638 122.368 102.55C123.324 105.559 124.513 109.304 126.923 110.504C127.957 111.02 129.123 111.035 130.489 110.551L142.863 106.164C144.102 105.717 145.116 104.798 145.683 103.606C146.251 102.414 146.326 101.046 145.894 99.7981C145.613 99.0917 145.338 98.2269 145.047 97.3112C144.091 94.3033 142.9 90.5597 140.491 89.3609C139.458 88.8466 138.293 88.8317 136.929 89.3152L124.552 93.7031C123.314 94.1499 122.302 95.0681 121.735 96.2586C121.167 97.4491 121.091 98.8159 121.522 100.062Z" fill="#3F3D56"/>
<path d="M51.673 101.103C49.498 101.859 47.1551 101.988 44.9106 101.475C41.6327 100.754 38.6579 98.7911 37.1473 96.3541L36.9958 96.1098L37.6762 95.722C42.9469 92.4299 50.8507 94.2147 54.2622 99.4706L54.4118 99.7011L54.1828 99.8523C53.3998 100.369 52.557 100.789 51.673 101.103ZM37.7715 96.3037C39.2499 98.5065 42.0011 100.269 45.0289 100.935C47.9721 101.625 51.0677 101.124 53.6453 99.541C50.3082 94.7005 42.9147 93.0949 37.9633 96.1943L37.7715 96.3037Z" fill="#3F3D56"/>
<path d="M54.9057 133.281C54.133 133.588 53.2916 133.678 52.4717 133.541C51.6519 133.405 50.8846 133.047 50.2523 132.506C49.512 131.857 48.9509 131.028 48.6229 130.099C48.2949 129.17 48.2111 128.172 48.3796 127.2C48.5361 126.365 48.9203 125.589 49.4896 124.959C50.0588 124.328 50.791 123.869 51.6049 123.63L68.0964 117.783C68.8791 117.458 69.7361 117.356 70.573 117.488C71.4099 117.62 72.1942 117.981 72.8394 118.532C73.5792 119.181 74.1399 120.01 74.4675 120.939C74.795 121.868 74.8785 122.866 74.7097 123.837C74.384 125.544 73.2351 126.801 71.4837 127.403L54.9919 133.25C54.9631 133.26 54.9344 133.271 54.9057 133.281ZM51.7075 124.179C51.0038 124.397 50.3726 124.803 49.8817 125.354C49.3908 125.904 49.0588 126.578 48.9213 127.304C48.7695 128.179 48.845 129.078 49.1405 129.916C49.436 130.753 49.9415 131.499 50.6084 132.084C51.1801 132.57 51.8747 132.887 52.6153 133.001C53.3559 133.115 54.1136 133.021 54.8042 132.73L71.3038 126.88C72.0243 126.672 72.6732 126.267 73.1788 125.712C73.6843 125.157 74.0267 124.472 74.1681 123.733C74.3202 122.859 74.245 121.959 73.9499 121.122C73.6547 120.285 73.1496 119.538 72.483 118.953C71.9105 118.468 71.2156 118.151 70.4747 118.036C69.7338 117.921 68.9757 118.014 68.2839 118.303L51.7832 124.153C51.7579 124.162 51.7325 124.171 51.7074 124.179L51.7075 124.179Z" fill="#3F3D56"/>
<path d="M130.783 97.8808L125.585 99.724C125.24 99.8462 124.861 99.8261 124.531 99.6681C124.201 99.5101 123.947 99.2271 123.825 98.8815C123.704 98.5358 123.724 98.1558 123.881 97.8249C124.039 97.4941 124.321 97.2396 124.666 97.1174L129.864 95.2743C130.209 95.152 130.588 95.1721 130.918 95.3301C131.248 95.4881 131.502 95.7711 131.624 96.1167C131.745 96.4624 131.725 96.8424 131.568 97.1733C131.41 97.5041 131.128 97.7586 130.783 97.8808Z" fill="#F9A826"/>
<path d="M132.254 102.051L127.055 103.895C126.71 104.017 126.331 103.997 126.001 103.839C125.672 103.681 125.418 103.398 125.296 103.052C125.174 102.706 125.194 102.326 125.352 101.995C125.509 101.665 125.791 101.41 126.136 101.288L131.335 99.4448C131.68 99.3226 132.059 99.3427 132.388 99.5007C132.718 99.6587 132.972 99.9416 133.094 100.287C133.216 100.633 133.196 101.013 133.038 101.344C132.881 101.675 132.599 101.929 132.254 102.051Z" fill="#F9A826"/>
<path d="M133.724 106.222L128.526 108.065C128.355 108.126 128.174 108.152 127.993 108.142C127.812 108.133 127.635 108.087 127.472 108.009C127.309 107.931 127.162 107.821 127.041 107.686C126.92 107.551 126.827 107.394 126.766 107.223C126.706 107.051 126.68 106.87 126.689 106.689C126.699 106.507 126.744 106.33 126.822 106.166C126.9 106.002 127.01 105.855 127.144 105.734C127.279 105.613 127.436 105.519 127.607 105.458L132.805 103.615C132.976 103.555 133.157 103.529 133.338 103.538C133.518 103.548 133.696 103.593 133.859 103.671C134.022 103.749 134.169 103.859 134.29 103.994C134.411 104.129 134.504 104.287 134.565 104.458C134.625 104.629 134.651 104.81 134.641 104.992C134.632 105.173 134.587 105.351 134.509 105.514C134.431 105.678 134.321 105.825 134.187 105.946C134.052 106.068 133.895 106.161 133.724 106.222Z" fill="#F9A826"/>
<path d="M139.881 94.6554L134.682 96.4985C134.512 96.559 134.331 96.5852 134.15 96.5756C133.969 96.566 133.792 96.5208 133.629 96.4426C133.465 96.3644 133.319 96.2547 133.198 96.1197C133.077 95.9847 132.983 95.8272 132.923 95.656C132.863 95.4849 132.837 95.3035 132.846 95.1222C132.856 94.9409 132.901 94.7633 132.979 94.5995C133.057 94.4357 133.166 94.2889 133.301 94.1675C133.435 94.0461 133.593 93.9525 133.763 93.8919L138.962 92.0488C139.307 91.9266 139.686 91.9467 140.016 92.1047C140.346 92.2627 140.599 92.5456 140.721 92.8913C140.843 93.2369 140.823 93.617 140.666 93.9478C140.508 94.2786 140.226 94.5331 139.881 94.6554Z" fill="#F9A826"/>
<path d="M141.352 98.8259L136.153 100.669C135.982 100.73 135.801 100.756 135.621 100.746C135.44 100.737 135.263 100.691 135.099 100.613C134.936 100.535 134.79 100.425 134.669 100.29C134.547 100.155 134.454 99.9977 134.394 99.8266C134.333 99.6554 134.307 99.474 134.317 99.2927C134.326 99.1114 134.372 98.9338 134.45 98.77C134.528 98.6062 134.637 98.4594 134.772 98.338C134.906 98.2166 135.063 98.123 135.234 98.0625L140.433 96.2193C140.603 96.1588 140.784 96.1326 140.965 96.1422C141.146 96.1518 141.323 96.197 141.486 96.2752C141.65 96.3534 141.796 96.4632 141.917 96.5981C142.038 96.7331 142.132 96.8907 142.192 97.0618C142.252 97.233 142.278 97.4144 142.269 97.5956C142.259 97.7769 142.214 97.9545 142.136 98.1183C142.058 98.2821 141.949 98.4289 141.814 98.5503C141.68 98.6717 141.522 98.7654 141.352 98.8259Z" fill="#F9A826"/>
<path d="M142.822 102.996L137.623 104.839C137.278 104.962 136.899 104.942 136.57 104.784C136.24 104.626 135.986 104.343 135.864 103.997C135.742 103.651 135.762 103.271 135.92 102.94C136.077 102.61 136.359 102.355 136.704 102.233L141.903 100.39C142.074 100.329 142.255 100.303 142.435 100.313C142.616 100.322 142.793 100.367 142.957 100.446C143.12 100.524 143.266 100.634 143.387 100.769C143.508 100.904 143.602 101.061 143.662 101.232C143.722 101.403 143.749 101.585 143.739 101.766C143.73 101.947 143.684 102.125 143.606 102.289C143.528 102.453 143.419 102.599 143.284 102.721C143.15 102.842 142.993 102.936 142.822 102.996Z" fill="#F9A826"/>
<path d="M145.179 71.9402L36.3159 110.536L36.4997 111.057L145.362 72.4615L145.179 71.9402Z" fill="#3F3D56"/>
<path d="M151.999 118.657L59.9807 151.28C57.7056 152.084 55.2054 151.95 53.0287 150.908C50.852 149.865 49.1766 148 48.3699 145.72L32.5624 100.887C31.7609 98.6056 31.8946 96.0985 32.9342 93.9158C33.9738 91.7331 35.8343 90.0531 38.1076 89.2442L130.126 56.6204C132.401 55.8167 134.901 55.9507 137.078 56.9932C139.255 58.0356 140.93 59.9013 141.737 62.1809L157.544 107.014C158.346 109.295 158.212 111.802 157.173 113.985C156.133 116.168 154.272 117.848 151.999 118.657ZM38.2914 89.7655C36.1559 90.5253 34.4081 92.1036 33.4316 94.154C32.455 96.2044 32.3294 98.5596 33.0823 100.703L48.8898 145.536C49.6476 147.677 51.2215 149.43 53.2662 150.409C55.311 151.388 57.6597 151.514 59.7969 150.759L151.815 118.135C153.951 117.375 155.699 115.797 156.675 113.747C157.652 111.696 157.777 109.341 157.024 107.198L141.217 62.3652C140.459 60.2237 138.885 58.4712 136.841 57.4919C134.796 56.5127 132.447 56.3867 130.31 57.1417L38.2914 89.7655Z" fill="#3F3D56"/>
<path d="M273.629 174H0.370771C0.272437 174 0.178129 173.961 0.108596 173.891C0.039063 173.821 0 173.727 0 173.628C0 173.53 0.039063 173.435 0.108596 173.365C0.178129 173.296 0.272437 173.256 0.370771 173.256H273.629C273.728 173.256 273.822 173.296 273.891 173.365C273.961 173.435 274 173.53 274 173.628C274 173.727 273.961 173.821 273.891 173.891C273.822 173.961 273.728 174 273.629 174Z" fill="#CBCBCB"/>
</g>
<defs>
<clipPath id="clip0_119_950">
<rect width="274" height="174" fill="white"/>
</clipPath>
</defs>
</svg>
