<svg width="290" height="194" viewBox="0 0 290 194" fill="none" xmlns="http://www.w3.org/2000/svg">
<g clip-path="url(#clip0_89_709)">
<path d="M195.488 6.71469C195.488 6.71469 196.166 7.49049 195.004 8.99158C193.842 10.4927 194.781 13.7498 196.988 13.8328C199.195 13.9158 200.265 14.8388 199.733 16.0546C199.201 17.2704 198.561 20.1593 200.965 19.72C203.368 19.2808 204.128 20.2362 203.702 20.9705C203.277 21.7048 204.774 19.5102 204.774 19.5102C204.774 19.5102 206.114 21.5025 207.757 20.1078C209.401 18.7132 210.055 6.07071 206.704 5.85643C203.352 5.64216 195.488 6.71469 195.488 6.71469Z" fill="#2F2E41"/>
<path d="M212.478 66.8365L213.241 72.1742H216.678L215.532 66.074L212.478 66.8365Z" fill="#9F616A"/>
<path d="M217.06 68.9335C217.06 68.9335 221.642 73.1275 220.497 73.5088C219.351 73.8901 215.151 78.4654 214.387 78.8467C213.704 79.1877 206.368 81.5156 207.514 78.8467C208.659 76.1777 211.332 74.6526 211.332 74.6526L212.096 70.0773L217.06 68.9335Z" fill="#F2F2F2"/>
<path opacity="0.1" d="M217.06 68.9335C217.06 68.9335 221.642 73.1275 220.497 73.5088C219.351 73.8901 215.151 78.4654 214.387 78.8467C213.704 79.1877 206.368 81.5156 207.514 78.8467C208.659 76.1777 211.332 74.6526 211.332 74.6526L212.096 70.0773L217.06 68.9335Z" fill="black"/>
<path d="M217.06 62.8329L217.824 68.1709H221.26L220.115 62.0703L217.06 62.8329Z" fill="#9F616A"/>
<path d="M202.7 48.6636L207.704 32.1403C207.704 32.1403 199.304 24.5147 205.031 22.2271C210.759 19.9394 212.287 31.3777 212.287 31.3777L210.377 51.2041H202.74L202.7 48.6636Z" fill="#FFB8B8"/>
<path d="M214.387 36.5249C214.387 36.5249 204.518 49.1639 206.016 51.0419C207.513 52.9198 210.186 64.3581 210.186 64.3581C210.186 64.3581 209.805 68.9335 211.332 68.9335C212.859 68.9335 216.678 68.1709 216.678 67.0271C216.678 65.8832 213.241 51.3947 213.241 51.3947L223.17 38.4313L214.387 36.5249Z" fill="#F9A826"/>
<path d="M215.151 37.2875L225.079 31.9496C225.079 31.9496 231.952 35.3811 230.043 38.4313C228.134 41.4815 219.351 49.4883 219.351 49.4883C219.351 49.4883 222.024 62.4517 221.642 62.833C221.26 63.2143 217.06 64.7394 215.914 64.3581C214.769 63.9769 208.659 49.1071 210.186 48.3445C211.714 47.5819 216.678 39.5751 216.678 39.5751L215.151 37.2875Z" fill="#F9A826"/>
<path d="M188.039 177.216C188.039 177.216 194.912 181.41 195.676 181.41C196.44 181.41 206.75 184.079 202.168 185.986C197.585 187.892 180.02 185.223 180.402 184.079C180.784 182.935 180.402 176.072 181.166 176.072C181.929 176.072 188.039 177.216 188.039 177.216Z" fill="#2F2E41"/>
<path d="M195.676 182.554C195.676 182.554 202.549 186.748 203.313 186.748C204.077 186.748 214.387 189.417 209.805 191.323C205.222 193.23 187.657 190.561 188.039 189.417C188.421 188.273 188.039 181.41 188.803 181.41C189.566 181.41 195.676 182.554 195.676 182.554Z" fill="#2F2E41"/>
<path d="M188.421 101.723C188.421 101.723 189.566 107.443 191.476 111.637C193.385 115.831 191.094 135.657 189.948 138.707C188.803 141.757 177.729 177.979 181.166 178.36C184.602 178.741 191.476 178.36 191.476 178.36L202.549 143.664L200.64 97.1481L188.421 101.723Z" fill="#575A88"/>
<path opacity="0.1" d="M188.421 101.723C188.421 101.723 189.566 107.443 191.476 111.637C193.385 115.831 191.094 135.657 189.948 138.707C188.803 141.757 177.729 177.979 181.166 178.36C184.602 178.741 191.476 178.36 191.476 178.36L202.549 143.664L200.64 97.1481L188.421 101.723Z" fill="black"/>
<path d="M190.712 102.105C190.712 102.105 192.239 112.399 195.676 114.687C199.113 116.974 197.967 119.262 197.967 119.262L196.44 139.47C196.44 139.47 181.547 176.072 186.13 180.648C190.712 185.223 194.912 183.317 196.822 182.935C198.731 182.554 202.168 174.547 200.258 172.26C198.349 169.972 204.077 156.246 205.604 153.958C207.132 151.671 205.604 148.62 207.513 147.858C209.423 147.095 213.623 142.139 213.623 138.707C213.623 135.276 218.969 98.6731 215.532 96.3854C212.096 94.0978 190.067 101.107 190.067 101.107L190.712 102.105Z" fill="#575A88"/>
<path d="M183.457 48.7258C188.096 48.7258 191.858 44.9703 191.858 40.3377C191.858 35.7051 188.096 31.9496 183.457 31.9496C178.817 31.9496 175.056 35.7051 175.056 40.3377C175.056 44.9703 178.817 48.7258 183.457 48.7258Z" fill="#FFB8B8"/>
<path d="M202.549 16.6985C206.345 16.6985 209.423 13.6259 209.423 9.83553C209.423 6.0452 206.345 2.97253 202.549 2.97253C198.753 2.97253 195.676 6.0452 195.676 9.83553C195.676 13.6259 198.753 16.6985 202.549 16.6985Z" fill="#9F616A"/>
<path d="M189.185 40.3378C189.185 40.3378 193.767 48.7259 196.058 48.7259C198.349 48.7259 186.893 57.4952 186.893 57.4952C186.893 57.4952 183.075 46.4382 182.311 46.0569C181.547 45.6757 189.185 40.3378 189.185 40.3378Z" fill="#FFB8B8"/>
<path d="M190.712 47.9632C190.712 47.9632 180.784 51.3947 181.166 52.5385C181.547 53.6824 178.493 56.3513 178.493 57.4951C178.493 58.639 177.729 68.9334 182.311 77.3215C186.893 85.7096 194.149 91.8101 190.712 95.6228C187.275 99.4356 181.929 105.917 187.657 105.917C193.385 105.917 202.549 97.5292 210.95 100.579C219.351 103.63 217.442 92.1914 217.442 92.1914C217.442 92.1914 218.587 83.422 216.296 80.753C214.005 78.0841 205.986 59.0202 205.986 56.7326C205.986 54.4449 198.349 45.6755 196.44 45.6755C194.53 45.6755 190.712 47.9632 190.712 47.9632Z" fill="#8985A8"/>
<path d="M204.459 14.0296C204.459 14.0296 207.568 19.9327 207.732 20.9846C207.895 22.0364 213.241 14.0296 213.241 14.0296L207.132 9.83557L204.459 14.0296Z" fill="#9F616A"/>
<path d="M205.604 18.6049L212.096 11.7419L219.733 15.1734C219.733 15.1734 226.855 30.8058 227.304 31.9496C227.752 33.0935 215.914 38.4313 214.769 38.4313C213.623 38.4313 205.604 26.6118 205.604 26.6118C205.604 26.6118 203.695 20.8926 205.604 18.6049Z" fill="#F2F2F2"/>
<path d="M202.549 27.7555V34.6187H207.132L205.625 27.7555H202.549Z" fill="#9F616A"/>
<path d="M205.164 32.9028C204.585 32.895 204.017 33.0636 203.537 33.3862C203.056 33.7088 202.685 34.17 202.474 34.7083C202.175 35.5144 202.277 36.3616 203.695 36.7156C206.75 37.4782 207.132 36.7156 207.132 36.7156C207.132 36.7156 212.435 35.9531 211.311 34.428C210.187 32.9029 207.132 32.9028 207.132 32.9028H205.164Z" fill="#9F616A"/>
<path d="M221.642 65.8833C221.642 65.8833 226.224 70.0774 225.079 70.4586C223.933 70.8399 219.733 75.4152 218.969 75.7965C218.286 76.1375 210.95 78.4654 212.096 75.7965C213.241 73.1276 215.914 71.6025 215.914 71.6025L216.678 67.0271L221.642 65.8833Z" fill="#F2F2F2"/>
<path d="M180.463 33.8809C180.989 33.5734 181.61 33.1904 181.625 32.5824C181.611 32.3589 181.532 32.1444 181.398 31.965C181.264 31.7856 181.081 31.6492 180.87 31.5726C180.446 31.4266 179.998 31.3663 179.55 31.395C179.379 31.3863 179.207 31.4033 179.04 31.4455C178.605 31.5795 178.355 32.0205 178.012 32.3197C177.515 32.7542 176.829 32.882 176.19 33.0476C175.118 33.3254 174.09 33.7507 173.135 34.3115C172.947 34.4067 172.782 34.5423 172.652 34.7086C172.502 35.015 172.435 35.3553 172.458 35.6955C172.371 36.9892 171.595 38.1152 171.015 39.2752C170.435 40.4352 170.054 41.8803 170.734 42.9844C171.005 43.328 171.257 43.6853 171.49 44.0549C171.972 45.0585 171.37 46.2942 171.719 47.3516C171.875 47.7679 172.125 48.1425 172.45 48.4462C173.12 49.1205 173.946 49.62 174.856 49.9008C175.723 50.1675 176.8 50.3453 177.14 51.186C177.286 51.5466 177.256 51.9715 177.462 52.3018C177.716 52.7109 178.242 52.8431 178.716 52.9303C179.249 53.0519 179.797 53.0915 180.342 53.0478C180.614 53.0242 180.879 52.9457 181.12 52.8169C181.361 52.6881 181.573 52.5117 181.744 52.2984C181.898 51.9974 182.088 51.7166 182.311 51.4625C182.864 51.0011 183.704 51.3655 184.414 51.2432C184.702 51.1891 184.968 51.054 185.182 50.8539C185.395 50.6538 185.547 50.3971 185.619 50.1138C185.639 49.812 185.722 49.5178 185.864 49.2506C186.305 48.6872 187.465 49.085 187.756 48.4316C187.946 48.0071 187.55 47.5586 187.167 47.2943C186.543 46.8632 185.845 46.5317 185.286 46.0201C184.726 45.5085 184.312 44.7431 184.487 44.0059C184.75 42.9004 186.196 42.2917 186.243 41.1565C186.271 40.5062 185.803 39.9355 185.279 39.5482C184.755 39.161 184.148 38.8827 183.679 38.43C183.337 38.0991 183.079 37.6838 182.707 37.3867C182.034 36.8494 181.113 36.7842 180.255 36.6963C179.796 36.6492 177.961 36.4371 178.034 35.7378C178.094 35.157 179.997 34.154 180.463 33.8809Z" fill="#2F2E41"/>
<path d="M205.604 18.2236C205.604 18.2236 201.404 19.7487 201.404 21.6551C201.404 23.5615 199.495 29.662 201.404 29.662C203.313 29.662 207.132 28.1984 207.132 28.1984L205.604 18.2236Z" fill="#F2F2F2"/>
<path d="M204.459 45.6756C204.459 45.6756 215.532 41.8628 215.914 41.8628C216.296 41.8628 221.642 38.8126 221.26 37.6688L219.733 28.1368C219.733 28.1368 213.623 15.5547 217.824 15.5547C222.024 15.5547 224.315 25.4679 224.315 25.4679C224.315 25.4679 233.48 42.6254 228.515 46.4381C223.551 50.2509 202.931 57.1139 201.786 55.9701C200.64 54.8262 204.459 45.6756 204.459 45.6756Z" fill="#FFB8B8"/>
<path d="M215.151 20.8925L217.728 23.3727L214.387 26.6117C214.387 26.6117 209.805 24.7053 210.186 25.8491C210.568 26.993 212.859 30.4245 214.387 30.4245C215.914 30.4245 223.864 25.4679 223.898 23.9428C223.933 22.4176 218.969 17.0798 217.824 16.6985C216.678 16.3172 215.151 20.8925 215.151 20.8925Z" fill="#9F616A"/>
<path d="M210.304 18.2349C210.304 18.2349 215.914 23.1802 216.678 23.1802C217.442 23.1802 218.831 15.75 218.831 15.75C218.831 15.75 214.304 12.805 212.627 13.6079C210.95 14.4109 210.304 18.2349 210.304 18.2349Z" fill="#F2F2F2"/>
<path d="M190.712 50.251C190.712 50.251 190.712 44.9131 202.168 44.9131H207.132L204.841 57.4952L197.203 59.7829L190.712 50.251Z" fill="#8985A8"/>
<path d="M215.735 7.05399C214.613 7.04859 213.491 6.97953 212.376 6.84715C211.501 4.73449 210.386 2.96179 209.179 2.30088C208.323 1.53597 207.003 0.980087 205.967 0.540584C203.422 -0.538686 199.187 0.134482 198.939 1.36193C193.933 3.75055 195.198 7.94537 195.198 7.94537C195.976 9.58725 197.721 8.85958 199.202 8.11604C199.58 9.30625 200.473 10.3163 201.751 10.3644C204.196 10.4563 205.382 11.4788 204.792 12.8256C204.203 14.1725 203.495 17.3729 206.157 16.8862C208.82 16.3996 209.661 17.458 209.19 18.2715C208.719 19.085 210.377 16.6537 210.377 16.6537C210.377 16.6537 211.861 18.8609 213.682 17.3158C213.866 17.1387 213.998 16.9141 214.061 16.6669C214.908 17.0308 215.579 17.169 215.96 16.9988C218.141 16.0243 216.787 13.736 216.787 13.736C216.787 13.736 219.699 13.2899 218.76 13.3639C217.822 13.4378 217.228 12.2233 218.816 10.0344C220.404 7.84542 217.207 7.10367 215.735 7.05399Z" fill="#2F2E41"/>
<path d="M200.962 5.33799L199.875 4.97681L198.79 8.23274L199.877 8.59392L200.962 5.33799Z" fill="#F9A826"/>
<path d="M71.5981 34.4895C71.5981 34.4895 71.1423 36.0065 73.7251 37.3718C76.3079 38.7371 77.0675 43.8949 74.0289 45.4119C70.9904 46.9289 70.0788 48.9009 71.5981 50.2662C73.1174 51.6315 75.8521 55.2723 72.2058 56.1825C68.5595 57.0927 68.1037 58.9131 69.1672 59.6716C70.2307 60.4301 66.7363 58.3063 66.7363 58.3063C66.7363 58.3063 66.1286 61.9471 62.9381 61.0369C59.7476 60.1267 50.7838 42.833 55.3417 40.4058C59.8995 37.9786 71.5981 34.4895 71.5981 34.4895Z" fill="#2F2E41"/>
<path d="M59.826 163.097L60.8138 172.302L56.5335 174.932L52.5826 174.275L54.5579 163.097H59.826Z" fill="#9F616A"/>
<path d="M63.1186 52.6356C68.2101 52.6356 72.3377 48.5143 72.3377 43.4305C72.3377 38.3466 68.2101 34.2253 63.1186 34.2253C58.0271 34.2253 53.8995 38.3466 53.8995 43.4305C53.8995 48.5143 58.0271 52.6356 63.1186 52.6356Z" fill="#9F616A"/>
<path d="M66.2465 47.8686C66.2465 47.8686 67.0696 61.8407 68.0574 61.8407C69.0452 61.8407 56.5336 61.1832 56.5336 61.1832C56.5336 61.1832 61.8016 51.9781 59.1676 49.0193C56.5336 46.0605 66.2465 47.8686 66.2465 47.8686Z" fill="#9F616A"/>
<path d="M52.5826 121.674L56.8629 138.112L53.5701 166.056L61.1432 165.398L64.1063 121.674H52.5826Z" fill="#2F2E41"/>
<path opacity="0.2" d="M52.5826 121.674L56.8629 138.112L53.5701 166.056L61.1432 165.398L64.1063 121.674H52.5826Z" fill="black"/>
<path d="M59.1676 170.658C59.1676 170.658 59.4968 168.686 62.7894 170.658C66.0819 172.631 79.9105 178.877 72.6669 180.192C65.4234 181.507 50.607 178.549 50.607 177.562C50.607 176.576 50.2778 170.33 51.5948 170.987C52.9118 171.645 57.1921 175.918 59.1676 170.658Z" fill="#2F2E41"/>
<path d="M54.8873 168.357C54.8873 168.357 49.6193 176.576 49.29 178.877C48.9608 181.179 44.022 173.617 44.022 173.617L48.6315 165.07L54.8873 168.357Z" fill="#9F616A"/>
<path d="M72.3376 122.989L66.4111 142.714C66.4111 142.714 55.875 170.658 55.2165 170.33C54.558 170.001 46.6559 168.028 46.3266 167.042C45.9974 166.056 56.2042 139.427 56.2042 139.427L57.5212 122.332L72.3376 122.989Z" fill="#2F2E41"/>
<path d="M43.0342 172.302C43.9332 172.24 44.829 172.461 45.5965 172.932C46.3639 173.404 46.9646 174.103 47.3145 174.932C48.6315 177.891 50.2777 178.22 50.607 178.549C50.9362 178.877 49.6192 185.781 50.607 186.439C51.5947 187.096 52.5825 194 49.29 194C45.9974 194 40.7294 190.384 41.0587 189.726C41.3879 189.069 41.3879 184.466 40.4002 182.494C39.4124 180.521 37.7661 177.233 40.4002 175.261C43.0342 173.288 43.0342 172.302 43.0342 172.302Z" fill="#2F2E41"/>
<path d="M74.3131 92.4148L74.9716 98.3324C74.9716 98.3324 79.9104 103.264 81.5566 109.181C83.2029 115.099 96.7022 124.962 92.7512 126.277C88.8002 127.592 84.1907 128.249 72.6668 126.277C61.143 124.304 43.0341 128.578 43.0341 117.729C43.0341 117.729 40.7293 114.77 39.0831 119.044C37.9235 121.963 36.6045 124.817 35.132 127.592C35.132 127.592 31.181 120.688 32.498 117.729C33.815 114.77 32.498 115.099 34.1443 111.811C35.7906 108.524 44.0219 96.3599 47.3144 95.7024C50.6069 95.0449 56.8627 86.4972 56.5334 85.511C56.2042 84.5247 74.3131 92.4148 74.3131 92.4148Z" fill="#F9A826"/>
<path d="M56.5336 55.5944C56.5336 55.5944 70.0329 58.5532 70.6914 60.5257C71.0618 61.6352 72.7866 63.681 74.2248 65.2586C76.6528 67.8825 78.267 71.1529 78.8719 74.6738C79.2153 76.7712 77.7717 78.6571 77.1118 81.0728C75.1363 88.3054 73.6547 86.4973 75.6302 91.7574C77.6057 97.0174 65.7526 98.9899 61.1431 96.6887C56.5336 94.3874 51.4302 80.7441 51.4302 79.1003C51.4302 77.4565 46.9852 58.8819 50.607 57.5669C54.2288 56.2519 56.5336 55.5944 56.5336 55.5944Z" fill="#575A88"/>
<path d="M75.3009 71.3746L79.2519 88.7986L92.2574 94.5518C92.2574 94.5518 102.135 92.2505 102.464 95.8668C102.679 98.2278 91.2697 99.1544 91.2697 99.1544L72.3376 91.7574L68.0574 75.6485L75.3009 71.3746Z" fill="#9F616A"/>
<path d="M70.6914 64.7994C70.6914 64.7994 78.9227 69.7308 76.9472 72.3608C74.9717 74.9908 70.0329 79.2646 68.7159 79.2646C67.3989 79.2646 66.4111 71.3745 66.4111 69.0732C66.4111 66.772 70.6914 64.7994 70.6914 64.7994Z" fill="#575A88"/>
<path d="M62.4554 31.4772C62.4554 31.4772 61.9504 33.1577 64.8116 34.6702C67.6729 36.1826 68.5144 41.8964 65.1483 43.5769C61.7821 45.2575 60.7723 47.4422 62.4554 48.9546C64.1384 50.4671 67.1679 54.5003 63.1286 55.5087C59.0892 56.517 58.5843 58.5336 59.7624 59.3739C60.9406 60.2141 57.0695 57.8614 57.0695 57.8614C57.0695 57.8614 56.3963 61.8947 52.8619 60.8864C49.3274 59.878 45.8009 41.5492 49.7408 36.8285C53.4042 32.439 62.4554 31.4772 62.4554 31.4772Z" fill="#2F2E41"/>
<path d="M63.5304 29.7473C63.5297 27.2852 56.1526 29.0543 52.9897 32.4919C50.7995 34.8724 47.4728 38.4537 50.2605 40.9782C53.0482 43.5027 45.4821 46.8121 43.453 47.8154C41.4238 48.8188 37.4174 51.8871 41.0349 53.9455C44.6524 56.0039 44.5941 58.0818 43.2327 58.5738C41.8712 59.0657 46.2343 57.8423 46.2343 57.8423C46.2343 57.8423 45.7935 61.9074 49.4693 61.8879C53.1451 61.8685 63.6908 41.6977 61.1715 36.0912C58.829 30.8781 63.5304 29.7473 63.5304 29.7473Z" fill="#2F2E41"/>
<path d="M61.9325 29.2079C71.7976 28.6147 72.7877 36.0293 72.7877 36.0293C72.7195 40.3201 65.8951 38.2294 63.9997 38.869C61.713 37.2265 57.3053 34.1188 54.153 31.9009C56.4416 30.2918 59.1376 29.3586 61.9325 29.2079Z" fill="#2F2E41"/>
<path d="M138.71 115.166H135.555V188.664H138.71V115.166Z" fill="#381E1D"/>
<path d="M135.555 115.166C135.555 115.166 140.918 108.446 145.334 117.161C145.334 117.161 143.231 121.046 142.6 119.156C141.969 117.266 140.458 114.44 138.69 116.115" fill="#381E1D"/>
<path d="M135.081 102.328C135.081 102.328 143.016 110.128 139.108 116.716C138.987 116.92 138.821 117.093 138.623 117.223C138.425 117.354 138.199 117.437 137.964 117.467C137.729 117.497 137.49 117.473 137.265 117.397C137.04 117.321 136.836 117.195 136.667 117.028C135.32 115.698 133.19 112.393 130.574 104.218L135.081 102.328Z" fill="#FDA57D"/>
<path opacity="0.1" d="M129.508 61.2495C129.508 61.2495 137.711 63.7695 136.133 73.6392C134.556 83.509 135.187 90.4389 135.187 90.4389L137.29 103.039L133.504 108.183C133.504 108.183 126.985 101.674 124.776 95.0587C122.568 88.4439 122.778 62.2995 129.508 61.2495Z" fill="black"/>
<path d="M129.403 61.1444C129.403 61.1444 137.605 63.6644 136.028 73.5341C134.451 83.4039 135.082 90.3337 135.082 90.3337L137.185 102.933L133.399 108.078C133.399 108.078 126.879 101.568 124.671 94.9536C122.463 88.3388 122.673 62.1944 129.403 61.1444Z" fill="#F9A826"/>
<path d="M119.785 173.536L118.44 183.59C118.44 183.59 121.892 185.001 122.926 184.682C123.961 184.363 125.774 185.66 125.774 185.66C125.774 185.66 133.487 188.093 135.002 185.907C136.516 183.721 133.081 183.052 130.293 181.404C127.506 179.756 126.327 173.395 126.327 173.395L119.785 173.536Z" fill="black"/>
<path d="M134.503 102.566V139.735L127.353 175.224H119.781L120.938 141.205C120.938 141.205 113.051 113.696 116.522 103.406L134.503 102.566Z" fill="#333333"/>
<path d="M128.67 107.255C128.67 107.255 139.695 108.814 140.478 116.43C140.502 116.666 140.472 116.904 140.39 117.127C140.308 117.349 140.176 117.55 140.005 117.714C139.834 117.878 139.627 118 139.401 118.073C139.175 118.145 138.936 118.165 138.701 118.131C136.826 117.861 133.145 116.47 126.173 111.451L128.67 107.255Z" fill="#FDA57D"/>
<path d="M130.034 59.4645C130.034 59.4645 128.247 62.5094 128.983 67.7593C128.983 67.7593 118.414 66.8668 118.73 60.777C118.73 60.777 123.883 59.517 125.092 54.8446L130.034 59.4645Z" fill="#FDA57D"/>
<path d="M112.424 175.741L111.079 185.795C111.079 185.795 114.531 187.206 115.566 186.887C116.6 186.568 118.413 187.865 118.413 187.865C118.413 187.865 126.126 190.298 127.641 188.112C129.155 185.926 125.72 185.257 122.932 183.609C120.145 181.961 118.966 175.6 118.966 175.6L112.424 175.741Z" fill="black"/>
<path opacity="0.1" d="M126.564 105.453V142.623L119.413 178.112H111.842L112.999 144.093C112.999 144.093 105.112 116.583 108.582 106.293L126.564 105.453Z" fill="black"/>
<path d="M126.249 105.453V142.623L119.098 178.112H111.527L112.683 144.093C112.683 144.093 104.797 116.583 108.267 106.293L126.249 105.453Z" fill="#333333"/>
<path opacity="0.1" d="M122.463 61.3545C122.463 61.3545 115.838 57.0496 111.422 69.8593C107.005 82.669 108.793 106.293 108.793 106.293C108.793 106.293 127.616 112.383 134.346 103.879V91.1738C134.346 91.1738 137.921 76.6841 132.873 64.0844C132.873 64.0844 128.457 65.8694 122.463 61.3545Z" fill="black"/>
<path opacity="0.1" d="M122.253 61.6694C122.253 61.6694 115.628 57.3645 111.211 70.1742C106.795 82.9839 108.582 106.608 108.582 106.608C108.582 106.608 127.405 112.698 134.135 104.193V91.4887C134.135 91.4887 137.711 76.9991 132.663 64.3994C132.663 64.3994 128.247 66.1843 122.253 61.6694Z" fill="black"/>
<path d="M122.253 61.3545C122.253 61.3545 115.628 57.0496 111.211 69.8593C106.795 82.669 108.582 106.293 108.582 106.293C108.582 106.293 127.405 112.383 134.135 103.879V91.1738C134.135 91.1738 137.711 76.6841 132.663 64.0844C132.663 64.0844 128.247 65.8694 122.253 61.3545Z" fill="#F9A826"/>
<path opacity="0.1" d="M115.523 67.7593C115.523 67.7593 123.725 70.2792 122.147 80.149C120.57 90.0188 121.201 96.9486 121.201 96.9486L131.717 107.553L127.931 112.698C127.931 112.698 112.999 108.183 110.791 101.569C108.582 94.9537 108.793 68.8093 115.523 67.7593Z" fill="black"/>
<path opacity="0.1" d="M114.997 68.0743C114.997 68.0743 123.199 70.5943 121.622 80.4641C120.044 90.3338 120.675 97.2637 120.675 97.2637L131.191 107.868L127.405 113.013C127.405 113.013 112.473 108.498 110.265 101.884C108.056 95.2687 108.267 69.1243 114.997 68.0743Z" fill="black"/>
<path d="M115.207 67.7593C115.207 67.7593 123.409 70.2792 121.832 80.149C120.255 90.0188 120.886 96.9486 120.886 96.9486L131.401 107.553L127.616 112.698C127.616 112.698 112.683 108.183 110.475 101.569C108.267 94.9537 108.477 68.8093 115.207 67.7593Z" fill="#F9A826"/>
<path opacity="0.1" d="M124.934 55.212L129.876 59.8319C129.796 59.9773 129.722 60.1266 129.657 60.2793C128.939 60.4703 128.2 60.567 127.458 60.5669C125.57 60.5669 123.928 59.6097 122.516 58.572C123.502 57.6815 124.349 56.8184 124.934 55.212Z" fill="black"/>
<path d="M126.196 56.2621C130.9 56.2621 134.714 52.4543 134.714 47.7572C134.714 43.0602 130.9 39.2524 126.196 39.2524C121.492 39.2524 117.678 43.0602 117.678 47.7572C117.678 52.4543 121.492 56.2621 126.196 56.2621Z" fill="#E0E0E0"/>
<path d="M127.616 60.1994C132.32 60.1994 136.133 56.3917 136.133 51.6946C136.133 46.9975 132.32 43.1898 127.616 43.1898C122.911 43.1898 119.098 46.9975 119.098 51.6946C119.098 56.3917 122.911 60.1994 127.616 60.1994Z" fill="#FDA57D"/>
<path d="M119.15 47.7573C119.15 47.7573 115.961 56.0965 122.708 58.6468C123.27 58.3602 123.756 57.9448 124.126 57.4345C124.496 56.9243 124.739 56.3338 124.836 55.7114C124.934 55.089 124.882 54.4525 124.685 53.854C124.488 53.2556 124.152 52.7123 123.704 52.2686L119.15 47.7573Z" fill="#E0E0E0"/>
<path d="M134.507 45.8902C134.507 45.8902 137.448 46.6023 132.295 48.3872C131.447 48.6714 130.666 49.1268 130.002 49.7251C129.338 50.3235 128.804 51.052 128.434 51.8652C128.203 52.3611 127.873 52.8045 127.464 53.1681C127.055 53.5316 126.575 53.8075 126.055 53.9787C125.535 54.15 124.985 54.2129 124.44 54.1637C123.895 54.1145 123.365 53.9541 122.884 53.6925L121.254 52.7971L118.414 46.1823L121.779 42.2974L127.563 41.5624L134.507 45.8902Z" fill="#E0E0E0"/>
<path d="M125.355 55.947C125.819 55.947 126.196 55.2889 126.196 54.477C126.196 53.6652 125.819 53.0071 125.355 53.0071C124.89 53.0071 124.513 53.6652 124.513 54.477C124.513 55.2889 124.89 55.947 125.355 55.947Z" fill="#FDA57D"/>
<path d="M122.463 61.3545C122.463 61.3545 128.194 70.3318 131.454 70.3318C134.714 70.3318 129.168 61.9139 129.168 61.9139L129.035 64.2419L122.463 61.3545Z" fill="#333333"/>
<path d="M155.476 139.818C136.43 139.818 116.704 137.886 96.5068 134.029C42.1892 123.657 12.8379 103.54 11.2312 102.676L6.3894 94.6358L6.39061 94.6365V94.6363C6.84387 94.8794 45.4155 115.365 98.4143 125.444C147.05 134.692 218.215 136.817 281.046 94.4117L279.665 104.095C250.757 123.606 224.115 133.369 188.033 137.847C177.231 139.174 166.358 139.832 155.476 139.818Z" fill="#F55F44"/>
<path d="M14.5206 88.0852H8.16785V177.796H14.5206V88.0852Z" fill="#E0E0E0"/>
<path d="M6.09594 174.851H16.5926C18.2094 174.851 19.7599 175.492 20.9031 176.634C22.0463 177.775 22.6886 179.323 22.6886 180.938V186.178H0V180.938C8.51422e-07 179.323 0.64225 177.775 1.78546 176.634C2.92867 175.492 4.4792 174.851 6.09594 174.851Z" fill="#E0E0E0"/>
<path opacity="0.1" d="M11.3442 98.5062C14.8528 98.5062 17.697 95.6663 17.697 92.163C17.697 88.6598 14.8528 85.8198 11.3442 85.8198C7.8357 85.8198 4.99146 88.6598 4.99146 92.163C4.99146 95.6663 7.8357 98.5062 11.3442 98.5062Z" fill="black"/>
<path d="M11.3442 98.0531C14.8528 98.0531 17.697 95.2131 17.697 91.7099C17.697 88.2066 14.8528 85.3667 11.3442 85.3667C7.8357 85.3667 4.99146 88.2066 4.99146 91.7099C4.99146 95.2131 7.8357 98.0531 11.3442 98.0531Z" fill="#E0E0E0"/>
<path opacity="0.1" d="M8.16785 175.301C8.16785 175.301 12.2518 176.659 14.5206 175.302L8.16785 175.301Z" fill="black"/>
<path d="M281.832 88.0852H275.479V177.796H281.832V88.0852Z" fill="#E0E0E0"/>
<path d="M273.407 174.851H283.904C285.521 174.851 287.071 175.492 288.215 176.634C289.358 177.775 290 179.323 290 180.938V186.178H267.312V180.938C267.312 179.323 267.954 177.775 269.097 176.634C270.24 175.492 271.791 174.851 273.407 174.851Z" fill="#E0E0E0"/>
<path opacity="0.1" d="M278.656 98.5062C282.164 98.5062 285.009 95.6663 285.009 92.163C285.009 88.6598 282.164 85.8198 278.656 85.8198C275.147 85.8198 272.303 88.6598 272.303 92.163C272.303 95.6663 275.147 98.5062 278.656 98.5062Z" fill="black"/>
<path d="M278.656 98.0531C282.164 98.0531 285.009 95.2131 285.009 91.7099C285.009 88.2066 282.164 85.3667 278.656 85.3667C275.147 85.3667 272.303 88.2066 272.303 91.7099C272.303 95.2131 275.147 98.0531 278.656 98.0531Z" fill="#E0E0E0"/>
<path opacity="0.1" d="M275.479 175.301C275.479 175.301 279.563 176.659 281.832 175.302L275.479 175.301Z" fill="black"/>
</g>
<defs>
<clipPath id="clip0_89_709">
<rect width="290" height="194" fill="white"/>
</clipPath>
</defs>
</svg>
